<svg width="34" height="34" viewBox="0 0 34 34" fill="none" xmlns="http://www.w3.org/2000/svg">
<path d="M6 10.5C6 9.67157 6.67157 9 7.5 9H24.5C25.3284 9 26 9.67157 26 10.5V13H6V10.5Z" fill="#889099"/>
<path d="M6 13H26V22.5C26 23.3284 25.3284 24 24.5 24H7.5C6.67157 24 6 23.3284 6 22.5V13Z" fill="#DADFE4"/>
<path d="M8 16.2C8 16.0895 8.08954 16 8.2 16H11.8C11.9105 16 12 16.0895 12 16.2V18.8C12 18.9105 11.9105 19 11.8 19H8.2C8.08954 19 8 18.9105 8 18.8V16.2Z" fill="#889099"/>
<path d="M21.24 20.68L26.5209 13.6388C26.6458 13.4723 26.9102 13.5835 26.8786 13.7892L26.0354 19.2696C26.0168 19.3907 26.1105 19.5 26.2331 19.5H29.562C29.7334 19.5 29.8254 19.7015 29.7131 19.831L23.9652 26.4632C23.8329 26.6159 23.5836 26.4986 23.6168 26.2994L24.4612 21.2329C24.4815 21.111 24.3875 21 24.2639 21H21.4C21.2352 21 21.1411 20.8118 21.24 20.68Z" fill="#FFA800"/>
</svg>
