<svg width="34" height="34" viewBox="0 0 34 34" fill="none" xmlns="http://www.w3.org/2000/svg">
<path fill-rule="evenodd" clip-rule="evenodd" d="M16.9896 5C17.459 5 17.8396 5.38056 17.8396 5.85L17.8396 26.35C17.8396 27.1654 17.7092 28.0049 17.2435 28.6567C16.737 29.3655 15.9487 29.7 14.9891 29.7C14.0295 29.7 13.2413 29.3655 12.735 28.6565C12.2694 28.0048 12.1392 27.1652 12.1392 26.35C12.1392 25.8806 12.5197 25.5 12.9892 25.5C13.4586 25.5 13.8392 25.8806 13.8392 26.35C13.8392 27.0348 13.9589 27.4452 14.1183 27.6685C14.2369 27.8345 14.4487 28 14.9891 28C15.5295 28 15.7415 27.8345 15.8603 27.6683C16.0198 27.4451 16.1396 27.0346 16.1396 26.35L16.1396 5.85C16.1396 5.38056 16.5201 5 16.9896 5Z" fill="#B2BAC2"/>
<path fill-rule="evenodd" clip-rule="evenodd" d="M12.7855 18.8496H13.8335C14.4655 18.2518 15.6469 17.8496 17 17.8496C18.3531 17.8496 19.5345 18.2518 20.1665 18.8496H21.2145C21.9369 18.2518 23.287 17.8496 24.8334 17.8496C26.3798 17.8496 27.7299 18.2518 28.4523 18.8496H29.0001C28.7267 12.7303 23.4587 7.84961 17.0001 7.84961C10.5414 7.84961 5.27342 12.7303 5 18.8496H5.5477C6.27006 18.2518 7.62021 17.8496 9.1666 17.8496C10.713 17.8496 12.0631 18.2518 12.7855 18.8496Z" fill="#4E74FB"/>
</svg>
