<svg width="34" height="34" viewBox="0 0 34 34" fill="none" xmlns="http://www.w3.org/2000/svg">
<path fill-rule="evenodd" clip-rule="evenodd" d="M25.2693 6.06295C25.4127 5.97902 25.5873 5.97902 25.7307 6.06295C27.2867 6.97395 30 9.35481 30 12.6296C30 16.0731 27 16.934 25.5 16.934C24 16.934 21 16.0731 21 12.6296C21 11.162 21.545 9.87394 22.2864 8.81725L17.9 10.1074V25.534H24V27.334H10V25.534H16.1V10.6368L8.75399 12.7974L8.24609 11.0705L25.2461 6.07054L25.2476 6.07573L25.2693 6.06295Z" fill="#1FB88A"/>
<path fill-rule="evenodd" clip-rule="evenodd" d="M8.73069 11.0626C8.58732 10.9786 8.41268 10.9786 8.26931 11.0626C6.7133 11.9736 4 14.3544 4 17.6292C4 21.0727 7 21.9336 8.5 21.9336C10 21.9336 13 21.0727 13 17.6292C13 14.3544 10.2867 11.9736 8.73069 11.0626Z" fill="#007862"/>
</svg>
