<svg width="34" height="34" viewBox="0 0 34 34" fill="none" xmlns="http://www.w3.org/2000/svg">
<path d="M5 9.875C5 8.83947 5.77231 8 6.725 8H26.275C27.2277 8 28 8.83947 28 9.875V13H5V9.875Z" fill="#FF4C00"/>
<path d="M5 13H28V23.3636C28 24.2674 27.2277 25 26.275 25H6.725C5.77231 25 5 24.2674 5 23.3636V13Z" fill="#FFB7A7"/>
<path d="M7 16.2667C7 16.1194 7.11193 16 7.25 16H11.75C11.8881 16 12 16.1194 12 16.2667V19.7333C12 19.8806 11.8881 20 11.75 20H7.25C7.11193 20 7 19.8806 7 19.7333V16.2667Z" fill="#FF4C00"/>
<circle cx="26" cy="22" r="6" fill="#FF8A00"/>
<path fill-rule="evenodd" clip-rule="evenodd" d="M23.5406 20.3043C23.4527 20.0562 23.2032 19.9355 22.9835 20.0347C22.7637 20.134 22.6568 20.4156 22.7447 20.6637L23.2241 22.0166H22.4286C22.1919 22.0166 22 22.2332 22 22.5005C22 22.7677 22.1919 22.9843 22.4286 22.9843H23.5669L24.1733 24.6958C24.2384 24.8795 24.396 25 24.5712 25C24.7464 25 24.904 24.8795 24.9691 24.6958L26 21.7861L27.0309 24.6958C27.096 24.8795 27.2536 25 27.4288 25C27.604 25 27.7616 24.8795 27.8267 24.6958L28.4331 22.9843H29.5714C29.8081 22.9843 30 22.7677 30 22.5005C30 22.2332 29.8081 22.0166 29.5714 22.0166H28.7759L29.2553 20.6637C29.3432 20.4156 29.2363 20.134 29.0165 20.0347C28.7968 19.9355 28.5473 20.0562 28.4594 20.3043L27.7491 22.3091C27.7462 22.3169 27.7434 22.3248 27.7408 22.3327L27.4288 23.2133L26.3982 20.3043C26.3311 20.1151 26.1701 19.9999 26 20C25.8299 19.9999 25.6689 20.1151 25.6018 20.3043L24.5712 23.2133L24.2592 22.3327C24.2566 22.3248 24.2538 22.3169 24.2509 22.3091L23.5406 20.3043Z" fill="white"/>
</svg>
