<svg width="34" height="34" viewBox="0 0 34 34" fill="none" xmlns="http://www.w3.org/2000/svg">
<circle cx="16.5" cy="16.5" r="10.5" fill="#FF8A00"/>
<circle cx="25" cy="24" r="6" fill="#FF4C00"/>
<path fill-rule="evenodd" clip-rule="evenodd" d="M25.7059 20.7059C25.7059 20.316 25.3898 20 25 20C24.6102 20 24.2941 20.316 24.2941 20.7059V23.2941H21.7059C21.316 23.2941 21 23.6102 21 24C21 24.3898 21.316 24.7059 21.7059 24.7059H24.2941V27.2941C24.2941 27.684 24.6102 28 25 28C25.3898 28 25.7059 27.684 25.7059 27.2941V24.7059H28.2941C28.684 24.7059 29 24.3898 29 24C29 23.6102 28.684 23.2941 28.2941 23.2941H25.7059V20.7059Z" fill="#FCFCFC"/>
<path fill-rule="evenodd" clip-rule="evenodd" d="M14 11C13.4477 11 13 11.4477 13 12V22C13 22.5523 13.4477 23 14 23C14.5523 23 15 22.5523 15 22V18.5H18.25C20.3211 18.5 22 16.8211 22 14.75C22 12.6789 20.3211 11 18.25 11H15H14ZM15 13V16.5H18.25C19.2165 16.5 20 15.7165 20 14.75C20 13.7835 19.2165 13 18.25 13H15Z" fill="#FCFCFC"/>
</svg>
