<svg width="16" height="22" viewBox="0 0 16 22" fill="none" xmlns="http://www.w3.org/2000/svg">
<path fill-rule="evenodd" clip-rule="evenodd" d="M8 0.900391C8.33137 0.900391 8.6 1.16902 8.6 1.50039V3.92729C11.9639 4.23043 14.6 7.05755 14.6 10.5004V16.9004H16V18.1003H11.5502C11.2646 19.803 9.7838 21.1003 8 21.1003C6.2162 21.1003 4.73542 19.803 4.44978 18.1003H0V16.9004H1.4V10.5004C1.4 7.05755 4.0361 4.23043 7.4 3.92729V1.50039C7.4 1.16902 7.66863 0.900391 8 0.900391ZM5.67561 18.1003C5.94204 19.1355 6.8817 19.9003 8 19.9003C9.1183 19.9003 10.058 19.1355 10.3244 18.1003H5.67561ZM5 16.9004H11H13.4V10.5004C13.4 7.51804 10.9823 5.10038 8 5.10038L7.99927 5.10038C5.01727 5.10077 2.6 7.51828 2.6 10.5004V16.9004H5Z" fill="#060B11"/>
</svg>
