<svg width="18" height="18" viewBox="0 0 18 18" fill="none" xmlns="http://www.w3.org/2000/svg">
<path fill-rule="evenodd" clip-rule="evenodd" d="M13.0357 3.5697C15.5577 6.0918 15.5577 10.1809 13.0357 12.703C10.5137 15.2251 6.42465 15.2251 3.90262 12.703C1.38059 10.1809 1.38059 6.0918 3.90262 3.5697C6.42465 1.0476 10.5137 1.0476 13.0357 3.5697ZM14.2697 13.1035C16.8442 10.1033 16.7106 5.57859 13.8687 2.73664C10.8866 -0.245547 6.05169 -0.245547 3.06959 2.73664C0.0874819 5.71883 0.0874819 10.5539 3.06959 13.5361C5.91162 16.3782 10.4365 16.5117 13.4367 13.9366L16.8274 17.3275C17.0575 17.5575 17.4304 17.5575 17.6605 17.3275C17.8905 17.0974 17.8905 16.7245 17.6605 16.4944L14.2697 13.1035Z" fill="#060B11"/>
</svg>
