<svg width="21" height="22" viewBox="0 0 21 22" fill="none" xmlns="http://www.w3.org/2000/svg">
<path d="M12.3621 2.79338H11.7621V2.82331L11.7651 2.85308L12.3621 2.79338ZM12.3621 2.79337H12.9621V2.76345L12.9592 2.73367L12.3621 2.79337ZM12.5963 4.04295L13.1014 3.71908V3.71908L12.5963 4.04295ZM13.6517 4.48009L13.5235 3.89394V3.89394L13.6517 4.48009ZM14.7008 3.7621L14.3209 3.29772L14.3209 3.29772L14.7008 3.7621ZM15.2829 3.35184L15.0688 2.79132L15.2829 3.35184ZM16.0876 3.39197L16.3564 2.85554V2.85554L16.0876 3.39197ZM16.6259 3.85812L17.0502 3.43385L17.0502 3.43385L16.6259 3.85812ZM17.4747 4.70691L17.899 4.28264L17.4747 4.70691ZM17.9408 5.24522L17.4044 5.514V5.514L17.9408 5.24522ZM17.981 6.04998L17.4205 5.8359V5.83591L17.981 6.04998ZM17.5707 6.632L17.1064 6.25205V6.25206L17.5707 6.632ZM16.8528 7.68108L17.4389 7.80924L17.4389 7.80923L16.8528 7.68108ZM17.29 8.73649L16.9661 9.24158L16.9661 9.24158L17.29 8.73649ZM18.5395 8.97064L18.5992 8.37362L18.5395 8.97064ZM19.2413 9.09214L18.9963 9.63984L18.9963 9.63984L19.2413 9.09214ZM19.7819 9.6895L20.3513 9.50022V9.50021L19.7819 9.6895ZM19.782 12.3103L20.3514 12.4995L20.3514 12.4995L19.782 12.3103ZM19.2412 12.9079L19.4861 13.4557L19.4861 13.4557L19.2412 12.9079ZM18.5398 13.0293L18.4801 12.4323L18.5398 13.0293ZM17.2908 13.2633L16.967 12.7582L16.967 12.7582L17.2908 13.2633ZM16.8535 14.319L17.4396 14.1907V14.1907L16.8535 14.319ZM17.5712 15.3677L17.1069 15.7476L17.1146 15.7571L17.1228 15.7663L17.5712 15.3677ZM17.5713 15.3677L18.0356 14.9878L18.0279 14.9783L18.0197 14.9691L17.5713 15.3677ZM17.9813 15.9495L17.4209 16.1636L17.9813 15.9495ZM17.9412 16.7545L17.4048 16.4856V16.4856L17.9412 16.7545ZM17.4752 17.2926L17.8995 17.7168L17.4752 17.2926ZM16.0879 18.6076L15.8192 18.0712L15.8192 18.0712L16.0879 18.6076ZM15.2834 18.6478L15.4974 18.0872L15.4974 18.0872L15.2834 18.6478ZM14.7011 18.2374L14.2769 18.6617L14.298 18.6828L14.3212 18.7018L14.7011 18.2374ZM14.7011 18.2374L15.1254 17.8131L15.1042 17.792L15.0811 17.773L14.7011 18.2374ZM13.6516 17.5192L13.5235 18.1053H13.5235L13.6516 17.5192ZM12.5965 17.9562L12.0914 17.6323L12.0914 17.6323L12.5965 17.9562ZM12.3622 19.2063L12.9592 19.266L12.3622 19.2063ZM12.2406 19.9085L11.6929 19.6634L11.6929 19.6634L12.2406 19.9085ZM11.6434 20.4489L11.4541 19.8796L11.4541 19.8796L11.6434 20.4489ZM9.02236 20.4489L8.8331 21.0183L8.83311 21.0183L9.02236 20.4489ZM8.42494 19.9083L8.97265 19.6633L8.42494 19.9083ZM8.30346 19.2066L7.70644 19.2663L8.30346 19.2066ZM8.06932 17.9571L8.57441 17.6333L8.06932 17.9571ZM7.01392 17.52L6.88578 16.9338L6.88577 16.9338L7.01392 17.52ZM5.96483 18.2379L6.31084 18.7281L6.32827 18.7158L6.34478 18.7023L5.96483 18.2379ZM5.96481 18.2379L5.6188 17.7478L5.60137 17.7601L5.58486 17.7736L5.96481 18.2379ZM5.38277 18.6482L5.59683 19.2087L5.59684 19.2087L5.38277 18.6482ZM4.57802 18.6081L4.8468 18.0716H4.8468L4.57802 18.6081ZM4.0397 18.1419L4.46396 17.7177L4.46396 17.7177L4.0397 18.1419ZM2.72477 16.7548L2.18833 17.0236L2.18833 17.0236L2.72477 16.7548ZM2.68463 15.9501L3.24515 16.1641L2.68463 15.9501ZM3.09494 15.368L2.63056 14.988H2.63056L3.09494 15.368ZM3.81291 14.3189L3.22676 14.1907L3.81291 14.3189ZM3.37572 13.2634L3.05188 13.7685L3.05188 13.7685L3.37572 13.2634ZM2.12634 13.0293L2.18604 12.4323L2.15626 12.4293H2.12634V13.0293ZM2.12633 13.0293L2.06663 13.6263L2.0964 13.6293H2.12633V13.0293ZM1.42475 12.9079L1.6697 12.3601L1.6697 12.3601L1.42475 12.9079ZM0.884048 12.3104L0.314672 12.4996L0.314672 12.4996L0.884048 12.3104ZM0.884105 9.6894L0.314764 9.50006L0.314764 9.50006L0.884105 9.6894ZM1.42459 9.09218L1.66964 9.63986H1.66964L1.42459 9.09218ZM2.12655 8.97063V8.37063H2.09663L2.06685 8.37361L2.12655 8.97063ZM2.12656 8.97063V9.57063H2.15648L2.18626 9.56765L2.12656 8.97063ZM3.37661 8.73634L3.70058 9.24136L3.70058 9.24136L3.37661 8.73634ZM3.81364 7.68125L4.39982 7.55323V7.55323L3.81364 7.68125ZM3.0954 6.63167L3.55977 6.25173H3.55977L3.0954 6.63167ZM2.68499 6.04937L2.12445 6.26336L2.12445 6.26336L2.68499 6.04937ZM2.72512 5.24488L2.18865 4.97617L2.18865 4.97617L2.72512 5.24488ZM4.57833 3.39156L4.84717 3.92796H4.84717L4.57833 3.39156ZM5.38328 3.35141L5.16915 3.9119H5.16915L5.38328 3.35141ZM5.96515 3.76158L5.58521 4.22595L5.58521 4.22595L5.96515 3.76158ZM7.01372 4.47927L7.14203 3.89315L7.01372 4.47927ZM8.06954 4.04194L7.56436 3.71822V3.71822L8.06954 4.04194ZM8.30349 2.79313L8.90051 2.85283V2.85283L8.30349 2.79313ZM8.42486 2.09188L8.97262 2.33675L8.97262 2.33675L8.42486 2.09188ZM9.02254 1.55099L8.83339 0.981586V0.981586L9.02254 1.55099ZM11.6433 1.55106L11.454 2.12042L11.454 2.12042L11.6433 1.55106ZM12.2407 2.0917L12.7884 1.84672V1.84672L12.2407 2.0917ZM12.9621 2.79338V2.79337H11.7621V2.79338H12.9621ZM13.1014 3.71908C13.1045 3.72387 13.079 3.68544 13.0486 3.50487C13.0191 3.32962 12.9949 3.0915 12.9592 2.73368L11.7651 2.85308C11.7992 3.19379 11.8274 3.47957 11.8652 3.70403C11.9021 3.92316 11.9588 4.16025 12.0912 4.36682L13.1014 3.71908ZM13.5235 3.89394C13.3601 3.92967 13.1917 3.85991 13.1014 3.71908L12.0912 4.36682C12.4524 4.93014 13.1261 5.20917 13.7798 5.06625L13.5235 3.89394ZM14.3209 3.29772C14.0426 3.52544 13.8571 3.67674 13.7123 3.77981C13.5632 3.886 13.518 3.89515 13.5235 3.89394L13.7798 5.06625C14.0195 5.01385 14.2272 4.88627 14.4083 4.7574C14.5937 4.62539 14.8158 4.4433 15.0808 4.22647L14.3209 3.29772ZM15.0688 2.79132C14.8043 2.89233 14.5723 3.092 14.3209 3.29772L15.0808 4.22647C15.4038 3.96218 15.459 3.92683 15.4969 3.91235L15.0688 2.79132ZM16.3564 2.85554C15.9552 2.65453 15.488 2.63123 15.0688 2.79132L15.4969 3.91235C15.6017 3.87233 15.7185 3.87815 15.8188 3.92841L16.3564 2.85554ZM17.0502 3.43385C16.8205 3.20412 16.6095 2.98236 16.3564 2.85554L15.8188 3.92841C15.8551 3.94659 15.9066 3.98726 16.2017 4.28238L17.0502 3.43385ZM17.899 4.28264L17.0502 3.43385L16.2017 4.28238L17.0505 5.13117L17.899 4.28264ZM18.4773 4.97643C18.3505 4.72333 18.1287 4.51236 17.899 4.28264L17.0505 5.13117C17.3456 5.42628 17.3862 5.47772 17.4044 5.514L18.4773 4.97643ZM18.5415 6.26406C18.7016 5.84483 18.6783 5.37764 18.4773 4.97643L17.4044 5.514C17.4547 5.61431 17.4605 5.7311 17.4205 5.8359L18.5415 6.26406ZM18.0351 7.01194C18.2408 6.76051 18.4405 6.52852 18.5415 6.26405L17.4205 5.83591C17.406 5.87382 17.3707 5.92905 17.1064 6.25205L18.0351 7.01194ZM17.4389 7.80923C17.4377 7.81479 17.4469 7.7696 17.5531 7.62043C17.6561 7.47567 17.8074 7.29024 18.0351 7.01194L17.1064 6.25206C16.8896 6.51705 16.7075 6.73908 16.5755 6.9245C16.4466 7.10552 16.319 7.31322 16.2666 7.55293L17.4389 7.80923ZM17.6138 8.2314C17.473 8.14109 17.4032 7.97268 17.4389 7.80924L16.2666 7.55292C16.1237 8.2067 16.4027 8.88037 16.9661 9.24158L17.6138 8.2314ZM18.5992 8.37362C18.2414 8.33784 18.0033 8.3137 17.828 8.2842C17.6474 8.25381 17.609 8.22832 17.6138 8.2314L16.9661 9.24158C17.1727 9.37403 17.4097 9.43068 17.6289 9.46756C17.8533 9.50534 18.1391 9.53359 18.4798 9.56766L18.5992 8.37362ZM19.4863 8.54444C19.2279 8.42882 18.9226 8.40595 18.5992 8.37362L18.4798 9.56766C18.8952 9.6092 18.9593 9.62327 18.9963 9.63984L19.4863 8.54444ZM20.3513 9.50021C20.2097 9.07443 19.8959 8.72766 19.4863 8.54444L18.9963 9.63984C19.0987 9.68565 19.1772 9.77234 19.2126 9.87879L20.3513 9.50021ZM20.433 10.3999C20.433 10.0749 20.4406 9.76891 20.3513 9.50022L19.2126 9.87878C19.2254 9.9173 19.233 9.98244 19.233 10.3999H20.433ZM20.433 11.6003V10.3999H19.233V11.6003H20.433ZM20.3514 12.4995C20.4406 12.2309 20.433 11.9251 20.433 11.6003H19.233C19.233 12.0175 19.2254 12.0826 19.2126 12.1211L20.3514 12.4995ZM19.4861 13.4557C19.8959 13.2724 20.2099 12.9255 20.3514 12.4995L19.2126 12.1211C19.1772 12.2276 19.0987 12.3144 18.9963 12.3602L19.4861 13.4557ZM18.5995 13.6263C18.9226 13.594 19.2277 13.5712 19.4861 13.4557L18.9963 12.3602C18.9592 12.3767 18.8952 12.3908 18.4801 12.4323L18.5995 13.6263ZM17.6146 13.7685C17.6098 13.7715 17.6482 13.7461 17.8287 13.7157C18.0038 13.6862 18.2419 13.6621 18.5995 13.6263L18.4801 12.4323C18.1396 12.4663 17.8539 12.4946 17.6295 12.5323C17.4105 12.5692 17.1735 12.6258 16.967 12.7582L17.6146 13.7685ZM17.4396 14.1907C17.4039 14.0273 17.4737 13.8588 17.6146 13.7685L16.967 12.7582C16.4034 13.1194 16.1243 13.7933 16.2674 14.4473L17.4396 14.1907ZM18.0356 14.9877C17.808 14.7095 17.6568 14.5242 17.5537 14.3795C17.4476 14.2304 17.4384 14.1852 17.4396 14.1907L16.2674 14.4473C16.3198 14.6869 16.4473 14.8945 16.5762 15.0754C16.7081 15.2608 16.8901 15.4827 17.1069 15.7476L18.0356 14.9877ZM18.0197 14.9691L18.0197 14.9691L17.1228 15.7663L17.1228 15.7663L18.0197 14.9691ZM18.5418 15.7353C18.4408 15.471 18.2413 15.2391 18.0356 14.9878L17.1069 15.7476C17.3711 16.0705 17.4064 16.1257 17.4209 16.1636L18.5418 15.7353ZM18.4776 17.0233C18.6787 16.622 18.702 16.1547 18.5418 15.7353L17.4209 16.1636C17.4609 16.2684 17.4551 16.3853 17.4048 16.4856L18.4776 17.0233ZM17.8995 17.7168C18.1291 17.4872 18.3508 17.2763 18.4776 17.0233L17.4048 16.4856C17.3866 16.5219 17.346 16.5733 17.051 16.8683L17.8995 17.7168ZM17.0507 18.5656L17.8995 17.7168L17.051 16.8683L16.2022 17.7171L17.0507 18.5656ZM17.0507 18.5656L17.0507 18.5656L16.2022 17.7171L16.2022 17.7171L17.0507 18.5656ZM16.3566 19.1441C16.6098 19.0173 16.8209 18.7954 17.0507 18.5656L16.2022 17.7171C15.9069 18.0123 15.8555 18.053 15.8192 18.0712L16.3566 19.1441ZM15.0694 19.2083C15.4885 19.3683 15.9555 19.345 16.3566 19.1441L15.8192 18.0712C15.7189 18.1214 15.6022 18.1272 15.4974 18.0872L15.0694 19.2083ZM14.3212 18.7018C14.5727 18.9076 14.8048 19.1073 15.0694 19.2083L15.4974 18.0872C15.4594 18.0727 15.4042 18.0374 15.0811 17.773L14.3212 18.7018ZM14.2768 18.6616L14.2769 18.6617L15.1254 17.8131L15.1254 17.8131L14.2768 18.6616ZM13.5235 18.1053C13.518 18.1041 13.5632 18.1133 13.7124 18.2195C13.8572 18.3226 14.0428 18.474 14.3212 18.7018L15.0811 17.773C14.816 17.5561 14.5938 17.3739 14.4083 17.2419C14.2272 17.113 14.0194 16.9854 13.7796 16.933L13.5235 18.1053ZM13.1015 18.2802C13.1918 18.1394 13.3601 18.0697 13.5235 18.1053L13.7796 16.933C13.126 16.7902 12.4526 17.0692 12.0914 17.6323L13.1015 18.2802ZM12.9592 19.266C12.995 18.908 13.0191 18.6698 13.0487 18.4945C13.0791 18.3138 13.1046 18.2754 13.1015 18.2802L12.0914 17.6323C11.9589 17.8389 11.9022 18.0761 11.8653 18.2953C11.8275 18.5198 11.7992 18.8057 11.7651 19.1466L12.9592 19.266ZM12.7882 20.1536C12.904 19.895 12.9268 19.5895 12.9592 19.266L11.7651 19.1466C11.7236 19.5622 11.7095 19.6263 11.6929 19.6634L12.7882 20.1536ZM11.8328 21.0182C12.2584 20.8767 12.605 20.563 12.7882 20.1536L11.6929 19.6634C11.6471 19.7657 11.5605 19.8442 11.4541 19.8796L11.8328 21.0182ZM10.9327 21.1C11.2578 21.1 11.564 21.1076 11.8328 21.0182L11.4541 19.8796C11.4155 19.8924 11.3504 19.9 10.9327 19.9V21.1ZM9.73261 21.1H10.9327V19.9H9.73261V21.1ZM8.83311 21.0183C9.10176 21.1076 9.40774 21.1 9.73261 21.1V19.9C9.31526 19.9 9.25013 19.8924 9.21161 19.8796L8.83311 21.0183ZM7.87722 20.1533C8.06044 20.5629 8.40726 20.8768 8.8331 21.0183L9.21162 19.8796C9.10516 19.8442 9.01845 19.7657 8.97265 19.6633L7.87722 20.1533ZM7.70644 19.2663C7.73877 19.5896 7.76163 19.8948 7.87722 20.1533L8.97265 19.6633C8.95608 19.6263 8.94202 19.5622 8.90049 19.1469L7.70644 19.2663ZM7.56423 18.281C7.56116 18.2762 7.58664 18.3146 7.61703 18.4952C7.64653 18.6704 7.67066 18.9085 7.70644 19.2663L8.90049 19.1469C8.86642 18.8062 8.83817 18.5205 8.80039 18.296C8.76351 18.0769 8.70685 17.8398 8.57441 17.6333L7.56423 18.281ZM7.14207 18.1061C7.30551 18.0704 7.47392 18.1401 7.56423 18.281L8.57441 17.6333C8.21319 17.0699 7.53954 16.7909 6.88578 16.9338L7.14207 18.1061ZM6.34478 18.7023C6.62308 18.4746 6.80851 18.3233 6.95327 18.2202C7.10243 18.1141 7.14763 18.1049 7.14207 18.1061L6.88577 16.9338C6.64607 16.9862 6.43836 17.1138 6.25734 17.2427C6.07192 17.3746 5.84988 17.5567 5.58489 17.7735L6.34478 18.7023ZM6.31082 18.7281L6.31084 18.7281L5.61882 17.7477L5.6188 17.7478L6.31082 18.7281ZM5.59684 19.2087C5.86131 19.1077 6.09331 18.908 6.34475 18.7023L5.58486 17.7736C5.26185 18.0379 5.20661 18.0732 5.1687 18.0877L5.59684 19.2087ZM4.30924 19.1445C4.71045 19.3455 5.17762 19.3688 5.59683 19.2087L5.1687 18.0877C5.0639 18.1277 4.9471 18.1219 4.8468 18.0716L4.30924 19.1445ZM3.61543 18.5662C3.84516 18.7959 4.05613 19.0177 4.30925 19.1445L4.8468 18.0716C4.81052 18.0534 4.75907 18.0128 4.46396 17.7177L3.61543 18.5662ZM2.76666 17.7174L3.61543 18.5662L4.46396 17.7177L3.61519 16.8689L2.76666 17.7174ZM2.18833 17.0236C2.31516 17.2767 2.53692 17.4877 2.76666 17.7174L3.61519 16.8689C3.32005 16.5738 3.27939 16.5223 3.2612 16.486L2.18833 17.0236ZM2.12411 15.736C1.96403 16.1552 1.98733 16.6224 2.18833 17.0236L3.2612 16.486C3.21095 16.3857 3.20513 16.2689 3.24515 16.1641L2.12411 15.736ZM2.63056 14.988C2.42481 15.2395 2.22512 15.4715 2.12411 15.736L3.24515 16.1641C3.25963 16.1262 3.29498 16.071 3.55931 15.7479L2.63056 14.988ZM3.22676 14.1907C3.22798 14.1852 3.21882 14.2304 3.11263 14.3795C3.00957 14.5243 2.85826 14.7097 2.63056 14.988L3.55931 15.7479C3.77613 15.4829 3.95821 15.2609 4.09021 15.0755C4.21907 14.8945 4.34664 14.6868 4.39906 14.4471L3.22676 14.1907ZM3.05188 13.7685C3.19274 13.8588 3.2625 14.0273 3.22676 14.1907L4.39906 14.4471C4.54203 13.7933 4.26297 13.1195 3.69955 12.7583L3.05188 13.7685ZM2.06663 13.6263C2.4244 13.6621 2.66248 13.6863 2.8377 13.7157C3.01825 13.7461 3.05667 13.7716 3.05188 13.7685L3.69956 12.7583C3.49301 12.6259 3.25596 12.5693 3.03685 12.5324C2.81243 12.4946 2.5267 12.4664 2.18604 12.4323L2.06663 13.6263ZM2.12633 13.6293H2.12634V12.4293H2.12633V13.6293ZM1.1798 13.4556C1.43821 13.5712 1.7434 13.594 2.06663 13.6263L2.18603 12.4323C1.77079 12.3908 1.70675 12.3767 1.6697 12.3601L1.1798 13.4556ZM0.314672 12.4996C0.456217 12.9255 0.770115 13.2724 1.1798 13.4556L1.6697 12.3601C1.56729 12.3143 1.48881 12.2276 1.45342 12.1212L0.314672 12.4996ZM0.233008 11.6002C0.233008 11.9251 0.225391 12.231 0.314672 12.4996L1.45342 12.1212C1.44062 12.0826 1.43301 12.0175 1.43301 11.6002H0.233008ZM0.233008 10.4V11.6002H1.43301V10.4H0.233008ZM0.314764 9.50006C0.225383 9.76883 0.233008 10.075 0.233008 10.4H1.43301C1.43301 9.98243 1.44063 9.91728 1.45345 9.87875L0.314764 9.50006ZM1.17953 8.54451C0.770069 8.72772 0.456323 9.0744 0.314764 9.50006L1.45345 9.87875C1.48884 9.77233 1.56727 9.68566 1.66964 9.63986L1.17953 8.54451ZM2.06685 8.37361C1.74344 8.40595 1.43807 8.42882 1.17953 8.54451L1.66964 9.63986C1.7067 9.62327 1.77078 9.6092 2.18625 9.56765L2.06685 8.37361ZM2.12656 8.37063H2.12655V9.57063H2.12656V8.37063ZM3.05265 8.23131C3.05744 8.22824 3.019 8.25375 2.83836 8.28415C2.66304 8.31367 2.42482 8.33781 2.06685 8.37361L2.18626 9.56765C2.52711 9.53357 2.813 9.5053 3.03755 9.46751C3.25677 9.43061 3.49395 9.37391 3.70058 9.24136L3.05265 8.23131ZM3.22746 7.80928C3.26315 7.97267 3.19342 8.14101 3.05265 8.23131L3.70058 9.24136C4.26365 8.88016 4.54257 8.20678 4.39982 7.55323L3.22746 7.80928ZM2.63103 7.01161C2.85883 7.29004 3.0102 7.47556 3.1133 7.62039C3.21953 7.76962 3.22868 7.81484 3.22746 7.80928L4.39982 7.55323C4.34744 7.3134 4.21983 7.10559 4.09091 6.92449C3.95886 6.73898 3.77669 6.51684 3.55977 6.25173L2.63103 7.01161ZM2.12445 6.26336C2.22547 6.52797 2.42521 6.76006 2.63103 7.01161L3.55977 6.25173C3.29538 5.92857 3.26002 5.87332 3.24554 5.83538L2.12445 6.26336ZM2.18865 4.97617C1.98775 5.37727 1.96446 5.84427 2.12445 6.26336L3.24554 5.83538C3.20554 5.73061 3.21136 5.61386 3.26159 5.51358L2.18865 4.97617ZM2.76716 4.28205C2.53734 4.51187 2.31549 4.72293 2.18865 4.97617L3.26159 5.51358C3.27977 5.47728 3.32045 5.42582 3.61569 5.13058L2.76716 4.28205ZM2.76716 4.28205L2.76716 4.28205L3.61569 5.13058L3.61569 5.13057L2.76716 4.28205ZM3.61593 3.43328L2.76716 4.28205L3.61569 5.13057L4.46446 4.2818L3.61593 3.43328ZM3.61594 3.43327L3.61593 3.43328L4.46446 4.2818L4.46447 4.2818L3.61594 3.43327ZM4.30949 2.85516C4.05648 2.98196 3.84558 3.20363 3.61594 3.43327L4.46447 4.2818C4.75947 3.98679 4.81089 3.94614 4.84717 3.92796L4.30949 2.85516ZM5.59741 2.79092C5.1781 2.63073 4.71078 2.65404 4.30949 2.85516L4.84717 3.92796C4.94749 3.87768 5.06432 3.87185 5.16915 3.9119L5.59741 2.79092ZM6.34509 3.2972C6.09371 3.09153 5.86178 2.89193 5.59741 2.79092L5.16915 3.9119C5.20704 3.92638 5.26227 3.96173 5.58521 4.22595L6.34509 3.2972ZM7.14203 3.89315C7.1476 3.89437 7.10242 3.88521 6.95332 3.77906C6.80862 3.67603 6.62327 3.5248 6.34509 3.2972L5.58521 4.22595C5.85008 4.44267 6.07202 4.62467 6.25734 4.75661C6.43827 4.88542 6.64585 5.01295 6.88541 5.06539L7.14203 3.89315ZM7.56436 3.71822C7.47405 3.85915 7.30554 3.92895 7.14203 3.89315L6.88541 5.06539C7.53945 5.20857 8.21348 4.92938 8.57471 4.36566L7.56436 3.71822ZM7.70647 2.73343C7.67071 3.09102 7.64659 3.32899 7.61712 3.50413C7.58675 3.68459 7.56129 3.72301 7.56436 3.71822L8.57471 4.36566C8.70702 4.15919 8.76363 3.92225 8.80048 3.70324C8.83823 3.47892 8.86646 3.19333 8.90051 2.85283L7.70647 2.73343ZM7.8771 1.84701C7.76163 2.10532 7.73877 2.41036 7.70647 2.73343L8.90051 2.85283C8.94201 2.4378 8.95606 2.37378 8.97262 2.33675L7.8771 1.84701ZM8.83339 0.981586C8.40732 1.12312 8.06033 1.43715 7.8771 1.84702L8.97262 2.33675C9.01842 2.23429 9.10517 2.15578 9.21169 2.1204L8.83339 0.981586ZM9.73238 0.9C9.4077 0.9 9.1019 0.892391 8.83339 0.981586L9.21169 2.1204C9.25018 2.10761 9.31528 2.1 9.73238 2.1V0.9ZM10.933 0.9H9.73238V2.1H10.933V0.9ZM11.8325 0.981689C11.5639 0.892381 11.2579 0.9 10.933 0.9V2.1C11.3503 2.1 11.4155 2.10762 11.454 2.12042L11.8325 0.981689ZM12.7884 1.84672C12.6052 1.4371 12.2583 1.12324 11.8325 0.981689L11.454 2.12042C11.5604 2.15581 11.6471 2.23427 11.693 2.33668L12.7884 1.84672ZM12.9592 2.73367C12.9268 2.4104 12.904 2.10516 12.7884 1.84672L11.693 2.33668C11.7095 2.37373 11.7236 2.43778 11.7651 2.85307L12.9592 2.73367ZM13.5329 11C13.5329 12.7673 12.1002 14.2 10.3329 14.2V15.4C12.763 15.4 14.7329 13.4301 14.7329 11H13.5329ZM10.3329 7.80003C12.1002 7.80003 13.5329 9.23271 13.5329 11H14.7329C14.7329 8.56997 12.763 6.60003 10.3329 6.60003V7.80003ZM7.1329 11C7.1329 9.23271 8.56559 7.80003 10.3329 7.80003V6.60003C7.90285 6.60003 5.9329 8.56997 5.9329 11H7.1329ZM10.3329 14.2C8.56559 14.2 7.1329 12.7673 7.1329 11H5.9329C5.9329 13.4301 7.90285 15.4 10.3329 15.4V14.2Z" fill="#060B11"/>
</svg>
