<svg width="26" height="26" viewBox="0 0 26 26" fill="none" xmlns="http://www.w3.org/2000/svg">
<g filter="url(#filter0_d_830_9081)">
<path fill-rule="evenodd" clip-rule="evenodd" d="M13.0003 0H8.99186C8.4908 0 8.4908 0.500386 9.99397 2.50193C4.39519 5.14286 3.26294 9.77143 4.39535 13.3714C5.52775 16.9714 9.68776 18 13.0003 18C16.3128 18 20.4732 16.9714 21.605 13.3714C22.7367 9.77143 21.6047 5.14286 16.0066 2.50193C17.5098 0.500386 17.5098 0 17.0087 0H13.0003ZM9.22956 7.04168C9.50426 6.92259 9.81602 7.06741 9.9259 7.36514L10.8183 9.78315L10.8197 9.78689L11.2142 10.8559L12.5025 7.36514C12.5863 7.13813 12.7874 7.00002 13 7C13.0255 7 13.0511 7.00198 13.0767 7.00602C13.2597 7.03484 13.4239 7.16567 13.4975 7.36514L14.7858 10.8559L15.1804 9.78685L15.1817 9.78319L16.0741 7.36514C16.184 7.06741 16.4957 6.92259 16.7704 7.04168C17.0451 7.16078 17.1788 7.49868 17.0689 7.79642L16.4697 9.41992H17.4643C17.7602 9.41992 18 9.67988 18 10.0005C18 10.3212 17.7602 10.5812 17.4643 10.5812H16.0412L15.2832 12.635C15.2018 12.8554 15.0049 13 14.7858 13C14.5667 13 14.3698 12.8554 14.2884 12.635L13 9.14384L11.7116 12.635C11.6302 12.8554 11.4332 13 11.2142 13C10.9951 13 10.7982 12.8554 10.7168 12.635L9.95885 10.5812H8.53571C8.23984 10.5812 8 10.3212 8 10.0005C8 9.67988 8.23984 9.41992 8.53571 9.41992H9.53028L8.93112 7.79642C8.82124 7.49868 8.95486 7.16078 9.22956 7.04168Z" fill="#060B11"/>
</g>
<defs>
<filter id="filter0_d_830_9081" x="0" y="0" width="26" height="26" filterUnits="userSpaceOnUse" color-interpolation-filters="sRGB">
<feFlood flood-opacity="0" result="BackgroundImageFix"/>
<feColorMatrix in="SourceAlpha" type="matrix" values="0 0 0 0 0 0 0 0 0 0 0 0 0 0 0 0 0 0 127 0" result="hardAlpha"/>
<feOffset dy="4"/>
<feGaussianBlur stdDeviation="2"/>
<feComposite in2="hardAlpha" operator="out"/>
<feColorMatrix type="matrix" values="0 0 0 0 0 0 0 0 0 0 0 0 0 0 0 0 0 0 0.25 0"/>
<feBlend mode="normal" in2="BackgroundImageFix" result="effect1_dropShadow_830_9081"/>
<feBlend mode="normal" in="SourceGraphic" in2="effect1_dropShadow_830_9081" result="shape"/>
</filter>
</defs>
</svg>
