<svg width="18" height="18" viewBox="0 0 18 18" fill="none" xmlns="http://www.w3.org/2000/svg">
<path fill-rule="evenodd" clip-rule="evenodd" d="M9.0003 0H4.99186C4.4908 0 4.4908 0.500386 5.99397 2.50193C0.39519 5.14286 -0.737055 9.77143 0.39535 13.3714C1.52775 16.9714 5.68776 18 9.0003 18C12.3128 18 16.4732 16.9714 17.605 13.3714C18.7367 9.77143 17.6047 5.14286 12.0066 2.50193C13.5098 0.500386 13.5098 0 13.0087 0H9.0003ZM5.22956 7.04168C5.50426 6.92259 5.81602 7.06741 5.9259 7.36514L6.81828 9.78315L6.81966 9.78689L7.2142 10.8559L8.50249 7.36514C8.58627 7.13813 8.78741 7.00002 9 7C9.02546 7 9.05108 7.00198 9.07668 7.00602C9.25967 7.03484 9.42389 7.16567 9.49751 7.36514L10.7858 10.8559L11.1804 9.78685L11.1817 9.78319L12.0741 7.36514C12.184 7.06741 12.4957 6.92259 12.7704 7.04168C13.0451 7.16078 13.1788 7.49868 13.0689 7.79642L12.4697 9.41992H13.4643C13.7602 9.41992 14 9.67988 14 10.0005C14 10.3212 13.7602 10.5812 13.4643 10.5812H12.0412L11.2832 12.635C11.2018 12.8554 11.0049 13 10.7858 13C10.5667 13 10.3698 12.8554 10.2884 12.635L9 9.14384L7.71159 12.635C7.63023 12.8554 7.43325 13 7.2142 13C6.99515 13 6.79816 12.8554 6.71681 12.635L5.95885 10.5812H4.53571C4.23984 10.5812 4 10.3212 4 10.0005C4 9.67988 4.23984 9.41992 4.53571 9.41992H5.53028L4.93112 7.79642C4.82124 7.49868 4.95486 7.16078 5.22956 7.04168Z" fill="#060B11"/>
</svg>
