<svg width="17" height="17" viewBox="0 0 17 17" fill="none" xmlns="http://www.w3.org/2000/svg">
<path d="M0.5 8.70427H1C1.27614 8.70427 1.5 8.93639 1.5 9.22272V16.4811C1.5 16.7674 1.72386 16.9995 2 16.9995H7.5C7.77614 16.9995 8 16.7674 8 16.4811V5.07509C8 4.78876 7.77614 4.55664 7.5 4.55664H0.5C0.223858 4.55664 0 4.78876 0 5.07509V8.18582C0 8.47215 0.223858 8.70427 0.5 8.70427Z" fill="#D7D8D9"/>
<path d="M16.5 8.70427H16C15.7239 8.70427 15.5 8.93639 15.5 9.22272V16.4811C15.5 16.7674 15.2761 16.9995 15 16.9995H9.5C9.22386 16.9995 9 16.7674 9 16.4811V5.07509C9 4.78876 9.22386 4.55664 9.5 4.55664H16.5C16.7761 4.55664 17 4.78876 17 5.07509V8.18582C17 8.47215 16.7761 8.70427 16.5 8.70427Z" fill="#D7D8D9"/>
<path d="M4.5 0.927938V1.96485C4.5 2.82385 5.17157 3.52021 6 3.52021H11C11.8284 3.52021 12.5 2.82385 12.5 1.96485V0.927938C12.5 0.35527 12.0496 -0.100438 11.5095 0.0192119C10.621 0.216033 9.57428 0.620127 8.90703 1.09476C8.66951 1.26373 8.32974 1.26443 8.09014 1.09863C7.41852 0.633872 6.35099 0.236286 5.48813 0.0339337C4.94946 -0.0923941 4.5 0.35527 4.5 0.927938Z" fill="#D7D8D9"/>
</svg>
