<svg width="22" height="20" viewBox="0 0 22 20" fill="none" xmlns="http://www.w3.org/2000/svg">
<path fill-rule="evenodd" clip-rule="evenodd" d="M3.5 1.5C2.80964 1.5 2.25 2.05964 2.25 2.75V6.25H0.75V2.75C0.75 1.23122 1.98122 0 3.5 0H7V1.5H3.5Z" fill="#060B11"/>
<path fill-rule="evenodd" clip-rule="evenodd" d="M3.5 18.5C2.80964 18.5 2.25 17.9404 2.25 17.25V13.75H0.75V17.25C0.75 18.7688 1.98122 20 3.5 20H7V18.5H3.5Z" fill="#060B11"/>
<path fill-rule="evenodd" clip-rule="evenodd" d="M18.5 1.5C19.1904 1.5 19.75 2.05964 19.75 2.75V6.25H21.25V2.75C21.25 1.23122 20.0188 0 18.5 0H15V1.5H18.5Z" fill="#060B11"/>
<path fill-rule="evenodd" clip-rule="evenodd" d="M18.5 18.5C19.1904 18.5 19.75 17.9404 19.75 17.25V13.75H21.25V17.25C21.25 18.7688 20.0188 20 18.5 20H15V18.5H18.5Z" fill="#060B11"/>
<path fill-rule="evenodd" clip-rule="evenodd" d="M22 11H0V9.5H22V11Z" fill="#FF3C3C"/>
<path fill-rule="evenodd" clip-rule="evenodd" d="M4.75 5.25H6.25V15.25H4.75V5.25Z" fill="#060B11"/>
<path fill-rule="evenodd" clip-rule="evenodd" d="M12.25 5.25H13.75V15.25H12.25V5.25Z" fill="#060B11"/>
<path fill-rule="evenodd" clip-rule="evenodd" d="M14.75 5.25H17.25V15.25H14.75V5.25Z" fill="#060B11"/>
<path fill-rule="evenodd" clip-rule="evenodd" d="M7.25 5.25H10.75V15.25H7.25V5.25Z" fill="#060B11"/>
</svg>
