<svg width="13" height="13" viewBox="0 0 13 13" fill="none" xmlns="http://www.w3.org/2000/svg">
<path d="M0 0.5C0 0.223858 0.223858 0 0.5 0H12.5C12.7761 0 13 0.223858 13 0.5V2.5C13 2.77614 12.7761 3 12.5 3H0.5C0.223858 3 0 2.77614 0 2.5V0.5Z" fill="#D7D8D9"/>
<path d="M0 5.5C0 5.22386 0.223858 5 0.5 5H12.5C12.7761 5 13 5.22386 13 5.5V7.5C13 7.77614 12.7761 8 12.5 8H0.5C0.223858 8 0 7.77614 0 7.5V5.5Z" fill="#D7D8D9"/>
<path d="M0 10.5C0 10.2239 0.223858 10 0.5 10H12.5C12.7761 10 13 10.2239 13 10.5V12.5C13 12.7761 12.7761 13 12.5 13H0.5C0.223858 13 0 12.7761 0 12.5V10.5Z" fill="#D7D8D9"/>
</svg>
